<svg xmlns="http://www.w3.org/2000/svg" viewBox="0 0 184.78 184.78"><defs><style>.cls-1{fill:#ffcd36;}.cls-2,.cls-3{fill:none;stroke-linecap:round;stroke-linejoin:round;stroke-width:8px;}.cls-2{stroke:#d99324;stroke-opacity:0.25;}.cls-3{stroke:#f8e76b;stroke-opacity:1;}.cls-4{fill:#db942f;fill-opacity:0.49;}</style></defs><title>Recurso 2</title><g id="Capa_2" data-name="Capa 2"><g id="Capa_1-2" data-name="Capa 1"><circle class="cls-1" cx="92.39" cy="92.39" r="92.39"/><path class="cls-2" d="M18.43,77.77S24.78,26.34,81.6,14.18"/><path class="cls-2" d="M34.68,78.94s5-40.64,48.59-49.66"/><path class="cls-2" d="M51.85,79.56s1.86-29.94,31.22-32.67"/><path class="cls-2" d="M170.09,103s-6.34,51.43-63.17,63.59"/><path class="cls-2" d="M153.84,101.82s-5,40.64-48.59,49.66"/><path class="cls-2" d="M136.67,101.2s-1.86,29.94-31.22,32.67"/><path class="cls-3" d="M83.8,117.5s-13.34-.64-16.57-15.42"/><path class="cls-3" d="M76,129.9s-15.59-2.66-19.32-19.11"/><path class="cls-3" d="M69.83,142.72A32.45,32.45,0,0,1,45.89,120"/><path class="cls-3" d="M62.46,155s-20.21-5.25-27.78-26.19"/><path class="cls-3" d="M101.21,66.19s13.34.64,16.57,15.42"/><path class="cls-3" d="M109,53.8s15.59,2.66,19.32,19.11"/><path class="cls-3" d="M115.17,41a32.45,32.45,0,0,1,23.94,22.71"/><path class="cls-3" d="M122.55,28.66s20.21,5.25,27.78,26.19"/><circle class="cls-4" cx="92.39" cy="92.39" r="13.84"/></g></g></svg>