<svg xmlns="http://www.w3.org/2000/svg" viewBox="0 0 354.16 332.73"><defs><style>.cls-1,.cls-2,.cls-3,.cls-4{stroke:#000;}.cls-1,.cls-2,.cls-3,.cls-4,.cls-6,.cls-7{stroke-linecap:round;stroke-linejoin:round;}.cls-1{stroke-width:20.15px;}.cls-2{stroke-width:18.14px;}.cls-3{stroke-width:21.31px;}.cls-4,.cls-6,.cls-7{fill:none;}.cls-4{stroke-width:24.89px;}.cls-5{fill:#ffcd36;}.cls-6{stroke:#d99324;stroke-opacity:0.25;}.cls-6,.cls-7{stroke-width:8px;}.cls-7{stroke:#f8e76b;stroke-opacity:1;}.cls-8{fill:#db942f;fill-opacity:0.49;}</style></defs><title>Recurso 4</title><g id="Capa_2" data-name="Capa 2"><g id="Capa_1-2" data-name="Capa 1"><path class="cls-1" d="M10.12,82.13l75.56-.26c16-52.68,176-52.61,185.16.82l71.73.21,1.51-71.75-333-1.08Z"/><rect x="300.17" y="83.5" width="18.11" height="217.13"/><rect class="cls-2" x="288.43" y="293.41" width="41.31" height="11.52"/><rect class="cls-3" x="276.07" y="309.43" width="66.32" height="12.65"/><rect x="34.76" y="83.5" width="18.11" height="217.13"/><rect class="cls-2" x="23.02" y="293.41" width="41.31" height="11.52"/><rect class="cls-3" x="10.65" y="309.43" width="66.32" height="12.65"/><path class="cls-4" d="M81.65,72.53l96.59,167.22"/><path class="cls-4" d="M275.89,72.53,179.31,239.75"/><circle class="cls-5" cx="177.11" cy="166.08" r="92.18"/><path class="cls-6" d="M103.32,151.49s6.33-51.31,63-63.44"/><path class="cls-6" d="M119.53,152.66s5-40.55,48.49-49.55"/><path class="cls-6" d="M136.66,153.28s1.86-29.88,31.15-32.6"/><path class="cls-6" d="M254.63,176.65s-6.33,51.31-63,63.44"/><path class="cls-6" d="M238.41,175.49s-5,40.55-48.49,49.55"/><path class="cls-6" d="M221.28,174.86s-1.86,29.88-31.15,32.6"/><path class="cls-7" d="M168.53,191.13s-13.31-.64-16.53-15.38"/><path class="cls-7" d="M160.71,203.5s-15.55-2.66-19.27-19.07"/><path class="cls-7" d="M154.6,216.29a32.38,32.38,0,0,1-23.89-22.66"/><path class="cls-7" d="M147.24,228.58s-20.16-5.24-27.72-26.13"/><path class="cls-7" d="M185.91,139.94s13.31.64,16.53,15.38"/><path class="cls-7" d="M193.73,127.57s15.55,2.66,19.27,19.07"/><path class="cls-7" d="M199.84,114.78a32.38,32.38,0,0,1,23.89,22.66"/><path class="cls-7" d="M207.2,102.49s20.16,5.24,27.72,26.13"/><circle class="cls-8" cx="177.11" cy="166.08" r="13.81"/></g></g></svg>