<svg xmlns="http://www.w3.org/2000/svg" viewBox="0 0 553.54 202.89"><defs><style>.cls-1{fill:#ffcd36;}.cls-2,.cls-3{fill:none;stroke-linecap:round;stroke-linejoin:round;stroke-width:8px;}.cls-2{stroke:#d99324;stroke-opacity:0.25;}.cls-3{stroke:#f8e76b;stroke-opacity:1;}.cls-4{fill:#db942f;fill-opacity:0.49;}.cls-5{fill:#edb133;} g:hover .cls-5{fill: #EE964B}</style></defs><title>Recurso 1</title><g id="Capa_1-2" data-name="Capa 1"><circle class="cls-1" cx="92.39" cy="97.6" r="92.39"/><path class="cls-2" d="M18.43,83S24.78,31.55,81.6,19.39"/><path class="cls-2" d="M34.68,84.15s5-40.64,48.59-49.66"/><path class="cls-2" d="M51.85,84.77S53.71,54.82,83.07,52.1"/><path class="cls-2" d="M170.09,108.2s-6.34,51.43-63.17,63.59"/><path class="cls-2" d="M153.84,107s-5,40.64-48.59,49.66"/><path class="cls-2" d="M136.67,106.41s-1.86,29.94-31.22,32.67"/><path class="cls-3" d="M83.8,122.71s-13.34-.64-16.57-15.42"/><path class="cls-3" d="M76,135.11S60.38,132.44,56.65,116"/><path class="cls-3" d="M69.83,147.93a32.45,32.45,0,0,1-23.94-22.71"/><path class="cls-3" d="M62.46,160.24S42.25,155,34.68,134.05"/><path class="cls-3" d="M101.21,71.4s13.34.64,16.57,15.42"/><path class="cls-3" d="M109,59s15.59,2.66,19.32,19.11"/><path class="cls-3" d="M115.17,46.19A32.45,32.45,0,0,1,139.11,68.9"/><path class="cls-3" d="M122.55,33.87s20.21,5.25,27.78,26.19"/><circle class="cls-4" cx="92.39" cy="97.6" r="13.84"/><path d="M209.41,36.44a38.09,38.09,0,0,1,3.14-15.92A33.64,33.64,0,0,1,220.92,9a35.36,35.36,0,0,1,11.41-6.7A38,38,0,0,1,269.72,9a35.08,35.08,0,0,1,8.17,11.52A38.1,38.1,0,0,1,281,36.44V44H259.66V36.44q0-7.75-4.29-11.41a15.9,15.9,0,0,0-20.31,0q-4.29,3.67-4.29,11.41v78.74q0,7.74,4.29,11.41a15.9,15.9,0,0,0,20.31,0q4.29-3.66,4.29-11.41V87.11h-17V68.27H281v46.91a37.74,37.74,0,0,1-3.14,16.12,33.3,33.3,0,0,1-8.17,11.1,35.91,35.91,0,0,1-11.62,6.91,37.07,37.07,0,0,1-25.76,0,33.6,33.6,0,0,1-11.41-6.91,32,32,0,0,1-8.38-11.1,37.73,37.73,0,0,1-3.14-16.12Z"/><path d="M298.61,36.44a38.09,38.09,0,0,1,3.14-15.92A33.64,33.64,0,0,1,310.13,9a35.37,35.37,0,0,1,11.41-6.7A38,38,0,0,1,358.92,9a35.18,35.18,0,0,1,8.17,11.52,38.13,38.13,0,0,1,3.14,15.92v78.74a37.78,37.78,0,0,1-3.14,16.12,33.39,33.39,0,0,1-8.17,11.1,35.93,35.93,0,0,1-11.62,6.91,37.07,37.07,0,0,1-25.76,0,33.6,33.6,0,0,1-11.41-6.91,32,32,0,0,1-8.38-11.1,37.73,37.73,0,0,1-3.14-16.12ZM320,115.18q0,7.74,4.29,11.41a15.9,15.9,0,0,0,20.31,0q4.3-3.66,4.3-11.41V36.44q0-7.75-4.3-11.41a15.9,15.9,0,0,0-20.31,0Q320,28.69,320,36.44Z"/><path d="M388.24,150.36V1.26h20.53L441,91.09h.42V1.26h21.36v149.1h-20.1L410,60.72h-.42v89.63Z"/><path d="M480.8,36.44a38.13,38.13,0,0,1,3.14-15.92A33.61,33.61,0,0,1,492.32,9a35.28,35.28,0,0,1,11.41-6.7A38,38,0,0,1,541.11,9a35,35,0,0,1,8.17,11.52,38.13,38.13,0,0,1,3.14,15.92V44H531.06V36.44q0-7.75-4.29-11.41a15.9,15.9,0,0,0-20.32,0q-4.29,3.67-4.29,11.41v78.74q0,7.74,4.29,11.41a15.9,15.9,0,0,0,20.32,0q4.29-3.66,4.29-11.41V87.11h-17V68.27h38.32v46.91a37.77,37.77,0,0,1-3.14,16.12,33.21,33.21,0,0,1-8.17,11.1,35.9,35.9,0,0,1-11.62,6.91,37.07,37.07,0,0,1-25.76,0,33.52,33.52,0,0,1-11.41-6.91,32,32,0,0,1-8.38-11.1,37.77,37.77,0,0,1-3.14-16.12Z"/><path class="cls-5" d="M209.52,167.75h5v2.63h.1a8,8,0,0,1,6.48-2.94,9.3,9.3,0,0,1,4.16.88,12.52,12.52,0,0,1,2.84,2.37,9.79,9.79,0,0,1,7.82-3.25,8.52,8.52,0,0,1,5.64,2.17,8.36,8.36,0,0,1,2.63,6.45v16.5h-5V177.79a5.38,5.38,0,0,0-1.36-4,4.72,4.72,0,0,0-3.51-1.39,4.8,4.8,0,0,0-3.54,1.39,5.27,5.27,0,0,0-1.41,4v14.77h-5V177.79a5.38,5.38,0,0,0-1.36-4,4.8,4.8,0,0,0-3.54-1.39,4.72,4.72,0,0,0-3.51,1.39,5.22,5.22,0,0,0-1.43,4v14.77h-5Z"/><path class="cls-5" d="M264,190.36h-.1a4.16,4.16,0,0,1-2.15,1.87,10.25,10.25,0,0,1-4,.62,9.06,9.06,0,0,1-6.41-2.2,6.88,6.88,0,0,1-2.37-5.38,7,7,0,0,1,2.06-5.19,8.19,8.19,0,0,1,6-2.15H264v-2.6q0-3.27-5.09-3.18a9.13,9.13,0,0,0-2.94.38,3.6,3.6,0,0,0-1.77,1.53l-3.92-3q2.84-3.73,8.39-3.63a13.3,13.3,0,0,1,7.48,1.77q2.8,1.86,2.85,6.4v17h-5Zm0-8.32h-6q-4.35.1-4.3,3a2.65,2.65,0,0,0,1.12,2.15,5.24,5.24,0,0,0,3.56,1,8.72,8.72,0,0,0,4.42-.74q1.17-.79,1.17-3.58Z"/><path class="cls-5" d="M275.43,167.75h5v2.63h.1a8.34,8.34,0,0,1,11.67-1l-3.63,4.33a5.25,5.25,0,0,0-3.28-1.25,4.7,4.7,0,0,0-3.28,1.25,4.86,4.86,0,0,0-1.58,3.95v14.94h-5Z"/><path class="cls-5" d="M294.49,157.71h5v21.68h.1l9.54-11.65h6l-8.56,9.68,9.73,15.13H310L303.4,181l-3.92,4.45v7.15h-5Z"/><path class="cls-5" d="M323.08,182a5.8,5.8,0,0,0,1.72,4.54,5.74,5.74,0,0,0,4.21,1.58,7.45,7.45,0,0,0,5.43-2.41l3.61,3.08a11.7,11.7,0,0,1-8.94,4,12.82,12.82,0,0,1-3.83-.57,9.11,9.11,0,0,1-1.82-.84,8.84,8.84,0,0,1-1.75-1.12,9.84,9.84,0,0,1-2.56-3.87,15.28,15.28,0,0,1-1.08-6.22,17.27,17.27,0,0,1,.93-6.12,10.66,10.66,0,0,1,2.39-3.92,9,9,0,0,1,3.32-2.1,10.74,10.74,0,0,1,3.59-.64,10.33,10.33,0,0,1,7.2,2.8,10.17,10.17,0,0,1,3,7.7V182Zm10.47-4.11a6.31,6.31,0,0,0-1.55-4.37,5.51,5.51,0,0,0-7.36,0,6.62,6.62,0,0,0-1.55,4.37Z"/><path class="cls-5" d="M344.07,160.19h5v7.55h3.63v3.8h-3.63V186c0,1.26.56,1.87,1.77,1.84h1.87v4.71h-2.6a5.92,5.92,0,0,1-4.3-1.63,5.74,5.74,0,0,1-1.72-4.49V171.55h-2.49v-3.8h2.49Z"/><path class="cls-5" d="M357.53,167.75h5v24.82h-5Zm0-10h5v5h-5Z"/><path class="cls-5" d="M369.12,167.75h5v2.63h.1a8,8,0,0,1,6.45-2.94,8.54,8.54,0,0,1,5.65,2.17,8.43,8.43,0,0,1,2.65,6.45v16.5h-5V177.79a5.33,5.33,0,0,0-1.39-4,4.72,4.72,0,0,0-3.51-1.39,4.79,4.79,0,0,0-3.54,1.39,5.27,5.27,0,0,0-1.41,4v14.77h-5Z"/><path class="cls-5" d="M409.38,190a8.4,8.4,0,0,1-6.4,2.89,7.91,7.91,0,0,1-4-1,8.9,8.9,0,0,1-2.55-2,7.47,7.47,0,0,1-1.41-3,31.42,31.42,0,0,1-.45-6.65,32.44,32.44,0,0,1,.45-6.76,7.25,7.25,0,0,1,1.41-2.94,8,8,0,0,1,2.55-2.1,8.57,8.57,0,0,1,4-.93,8.42,8.42,0,0,1,6.4,2.94v-2.63h5V192q-.1,5.6-3.23,8.22a11.23,11.23,0,0,1-7.55,2.7,11.35,11.35,0,0,1-8.6-4.16l3.87-3.08a9.25,9.25,0,0,0,2.2,1.51,6,6,0,0,0,6.74-.67,5.32,5.32,0,0,0,1.58-4Zm-9.85-9.78a26.23,26.23,0,0,0,.19,3.92,3.65,3.65,0,0,0,.79,1.87,4.55,4.55,0,0,0,1.53,1.22,4.76,4.76,0,0,0,4.87,0A4.72,4.72,0,0,0,408.4,186a4,4,0,0,0,.84-1.87,35.05,35.05,0,0,0,.14-3.92,37.12,37.12,0,0,0-.14-4,3.68,3.68,0,0,0-.84-1.81,5.76,5.76,0,0,0-1.48-1.31,5.24,5.24,0,0,0-4.87,0,5.47,5.47,0,0,0-1.53,1.31,3.35,3.35,0,0,0-.79,1.81A27.78,27.78,0,0,0,399.53,180.18Z"/><path class="cls-5" d="M447.42,190a8.43,8.43,0,0,1-6.43,2.89,8.18,8.18,0,0,1-3.85-.93,8.31,8.31,0,0,1-2.8-2.29,6.31,6.31,0,0,1-1.36-3.18,34.2,34.2,0,0,1-.4-6.31,34.27,34.27,0,0,1,.4-6.36,6.23,6.23,0,0,1,1.36-3.09q2.1-3.13,6.65-3.25a8,8,0,0,1,3.54.79,14.24,14.24,0,0,1,2.89,2.15V157.71h5v34.86h-5Zm-4.9-17.53a5,5,0,0,0-2.7.6,3.75,3.75,0,0,0-1.51,1.77,9.14,9.14,0,0,0-.6,2.43,28.4,28.4,0,0,0-.14,2.89,25.51,25.51,0,0,0,.14,2.75,9.25,9.25,0,0,0,.6,2.54,4.08,4.08,0,0,0,1.51,1.77,4.6,4.6,0,0,0,2.7.67,4.83,4.83,0,0,0,2.8-.72,3.51,3.51,0,0,0,1.41-1.82,9,9,0,0,0,.65-2.51c0-.91,0-1.8,0-2.68s0-1.87,0-2.75a9,9,0,0,0-.65-2.44,3.51,3.51,0,0,0-1.41-1.82A5,5,0,0,0,442.52,172.43Z"/><path class="cls-5" d="M458.13,167.75h5v24.82h-5Zm0-10h5v5h-5Z"/><path class="cls-5" d="M483.68,190a8.4,8.4,0,0,1-6.4,2.89,7.88,7.88,0,0,1-4-1,8.87,8.87,0,0,1-2.56-2,7.53,7.53,0,0,1-1.41-3,31.42,31.42,0,0,1-.45-6.65,32.44,32.44,0,0,1,.45-6.76,7.31,7.31,0,0,1,1.41-2.94,8,8,0,0,1,2.56-2.1,8.54,8.54,0,0,1,4-.93,8.41,8.41,0,0,1,6.4,2.94v-2.63h5V192q-.1,5.6-3.23,8.22a11.38,11.38,0,0,1-16.16-1.46l3.87-3.08a9.28,9.28,0,0,0,2.2,1.51,6,6,0,0,0,6.74-.67,5.3,5.3,0,0,0,1.58-4Zm-9.85-9.78a26.23,26.23,0,0,0,.19,3.92,3.73,3.73,0,0,0,.79,1.87,4.6,4.6,0,0,0,1.53,1.22,4.77,4.77,0,0,0,4.88,0A4.7,4.7,0,0,0,482.7,186a4,4,0,0,0,.84-1.87,35.05,35.05,0,0,0,.14-3.92,37.12,37.12,0,0,0-.14-4,3.68,3.68,0,0,0-.84-1.81,5.73,5.73,0,0,0-1.48-1.31,5.24,5.24,0,0,0-4.88,0,5.53,5.53,0,0,0-1.53,1.31,3.42,3.42,0,0,0-.79,1.81A27.78,27.78,0,0,0,473.83,180.18Z"/><path class="cls-5" d="M495.28,167.75h5v24.82h-5Zm0-10h5v5h-5Z"/><path class="cls-5" d="M507.16,160.19h5v7.55h3.63v3.8h-3.63V186c0,1.26.56,1.87,1.77,1.84h1.87v4.71h-2.6a5.92,5.92,0,0,1-4.3-1.63,5.75,5.75,0,0,1-1.72-4.49V171.55h-2.49v-3.8h2.49Z"/><path class="cls-5" d="M533.51,190.36h-.1a4.13,4.13,0,0,1-2.15,1.87,10.25,10.25,0,0,1-4,.62,9.06,9.06,0,0,1-6.4-2.2,6.88,6.88,0,0,1-2.37-5.38,7,7,0,0,1,2.06-5.19,8.18,8.18,0,0,1,6-2.15h6.91v-2.6q0-3.27-5.09-3.18a9.12,9.12,0,0,0-2.94.38,3.58,3.58,0,0,0-1.77,1.53l-3.92-3q2.85-3.73,8.39-3.63a13.31,13.31,0,0,1,7.48,1.77q2.79,1.86,2.84,6.4v17h-5Zm0-8.32h-6q-4.35.1-4.3,3a2.65,2.65,0,0,0,1.13,2.15,5.24,5.24,0,0,0,3.56,1,8.71,8.71,0,0,0,4.42-.74q1.17-.79,1.17-3.58Z"/><path class="cls-5" d="M545,157.71h5v28.45c0,1.13.62,1.7,1.87,1.7h1.72v4.71h-2.22a7.13,7.13,0,0,1-4.49-1.36q-1.87-1.39-1.87-4.66Z"/></g></svg>
