<svg xmlns="http://www.w3.org/2000/svg" viewBox="0 0 354.16 545.37"><defs><style>.cls-1,.cls-2,.cls-3,.cls-4{stroke:#000;}.cls-1,.cls-2,.cls-3,.cls-4,.cls-6,.cls-7{stroke-linecap:round;stroke-linejoin:round;}.cls-1{stroke-width:20.15px;}.cls-2{stroke-width:18.14px;}.cls-3{stroke-width:21.31px;}.cls-4,.cls-6,.cls-7{fill:none;}.cls-4{stroke-width:24.89px;}.cls-5{fill:#ffcd36;}.cls-6{stroke:#d99324;stroke-opacity:0.25;}.cls-6,.cls-7{stroke-width:8px;}.cls-7{stroke:#f8e76b;stroke-opacity:1;}.cls-8{fill:#db942f;fill-opacity:0.49;}.cls-9{fill:#edb133;}</style></defs><title>Recurso 3</title><g id="Capa_2" data-name="Capa 2"><g id="Capa_1-2" data-name="Capa 1"><path class="cls-1" d="M10.12,82.13l75.56-.26c16-52.68,176-52.61,185.16.82l71.73.21,1.51-71.75-333-1.08Z"/><rect x="300.17" y="83.5" width="18.11" height="217.13"/><rect class="cls-2" x="288.43" y="293.41" width="41.31" height="11.52"/><rect class="cls-3" x="276.07" y="309.43" width="66.32" height="12.65"/><rect x="34.76" y="83.5" width="18.11" height="217.13"/><rect class="cls-2" x="23.02" y="293.41" width="41.31" height="11.52"/><rect class="cls-3" x="10.65" y="309.43" width="66.32" height="12.65"/><path class="cls-4" d="M81.65,72.53l96.59,167.22"/><path class="cls-4" d="M275.89,72.53,179.31,239.75"/><circle class="cls-5" cx="177.11" cy="166.08" r="92.18"/><path class="cls-6" d="M103.32,151.49s6.33-51.31,63-63.44"/><path class="cls-6" d="M119.53,152.66s5-40.55,48.49-49.55"/><path class="cls-6" d="M136.66,153.28s1.86-29.88,31.15-32.6"/><path class="cls-6" d="M254.63,176.65s-6.33,51.31-63,63.44"/><path class="cls-6" d="M238.41,175.49s-5,40.55-48.49,49.55"/><path class="cls-6" d="M221.28,174.86s-1.86,29.88-31.15,32.6"/><path class="cls-7" d="M168.53,191.13s-13.31-.64-16.53-15.38"/><path class="cls-7" d="M160.71,203.5s-15.55-2.66-19.27-19.07"/><path class="cls-7" d="M154.6,216.29a32.38,32.38,0,0,1-23.89-22.66"/><path class="cls-7" d="M147.24,228.58s-20.16-5.24-27.72-26.13"/><path class="cls-7" d="M185.91,139.94s13.31.64,16.53,15.38"/><path class="cls-7" d="M193.73,127.57s15.55,2.66,19.27,19.07"/><path class="cls-7" d="M199.84,114.78a32.38,32.38,0,0,1,23.89,22.66"/><path class="cls-7" d="M207.2,102.49s20.16,5.24,27.72,26.13"/><circle class="cls-8" cx="177.11" cy="166.08" r="13.81"/><path d="M5.45,378.91A38.09,38.09,0,0,1,8.6,363,33.64,33.64,0,0,1,17,351.48a35.36,35.36,0,0,1,11.41-6.7,38,38,0,0,1,37.38,6.7A35.08,35.08,0,0,1,73.93,363a38.1,38.1,0,0,1,3.14,15.92v7.54H55.71v-7.54q0-7.75-4.29-11.41a15.14,15.14,0,0,0-10.16-3.67,15.14,15.14,0,0,0-10.16,3.67q-4.29,3.67-4.29,11.41v78.74q0,7.74,4.29,11.41a15.14,15.14,0,0,0,10.16,3.67,15.14,15.14,0,0,0,10.16-3.67q4.29-3.66,4.29-11.41V429.59h-17V410.74H77.07v46.91a37.74,37.74,0,0,1-3.14,16.12,33.3,33.3,0,0,1-8.17,11.1,35.91,35.91,0,0,1-11.62,6.91,37.07,37.07,0,0,1-25.76,0A33.6,33.6,0,0,1,17,484.87a32,32,0,0,1-8.38-11.1,37.73,37.73,0,0,1-3.14-16.12Z"/><path d="M94.66,378.91A38.09,38.09,0,0,1,97.8,363a33.64,33.64,0,0,1,8.38-11.52,35.37,35.37,0,0,1,11.41-6.7,38,38,0,0,1,37.38,6.7A35.18,35.18,0,0,1,163.14,363a38.13,38.13,0,0,1,3.14,15.92v78.74a37.78,37.78,0,0,1-3.14,16.12,33.39,33.39,0,0,1-8.17,11.1,35.93,35.93,0,0,1-11.62,6.91,37.07,37.07,0,0,1-25.76,0,33.6,33.6,0,0,1-11.41-6.91,32,32,0,0,1-8.38-11.1,37.73,37.73,0,0,1-3.14-16.12ZM116,457.65q0,7.74,4.29,11.41a15.9,15.9,0,0,0,20.31,0q4.3-3.66,4.3-11.41V378.91q0-7.75-4.3-11.41a15.9,15.9,0,0,0-20.31,0Q116,371.16,116,378.91Z"/><path d="M184.29,492.83V343.73h20.53l32.25,89.83h.42V343.73h21.36v149.1h-20.1L206.07,403.2h-.42v89.63Z"/><path d="M276.84,378.91A38.13,38.13,0,0,1,280,363a33.61,33.61,0,0,1,8.38-11.52,35.28,35.28,0,0,1,11.41-6.7,38,38,0,0,1,37.37,6.7A35,35,0,0,1,345.32,363a38.13,38.13,0,0,1,3.14,15.92v7.54H327.1v-7.54q0-7.75-4.29-11.41a15.9,15.9,0,0,0-20.32,0q-4.29,3.67-4.29,11.41v78.74q0,7.74,4.29,11.41a15.9,15.9,0,0,0,20.32,0q4.29-3.66,4.29-11.41V429.59h-17V410.74h38.32v46.91a37.77,37.77,0,0,1-3.14,16.12,33.21,33.21,0,0,1-8.17,11.1,35.9,35.9,0,0,1-11.62,6.91,37.07,37.07,0,0,1-25.76,0,33.52,33.52,0,0,1-11.41-6.91,32,32,0,0,1-8.38-11.1,37.77,37.77,0,0,1-3.14-16.12Z"/><path class="cls-9" d="M5.57,510.22h5v2.63h.1a8,8,0,0,1,6.48-2.94,9.3,9.3,0,0,1,4.16.88,12.52,12.52,0,0,1,2.84,2.37A9.79,9.79,0,0,1,32,509.91a8.52,8.52,0,0,1,5.64,2.17,8.36,8.36,0,0,1,2.63,6.45V535h-5V520.26a5.38,5.38,0,0,0-1.36-4,4.72,4.72,0,0,0-3.51-1.39,4.8,4.8,0,0,0-3.54,1.39,5.27,5.27,0,0,0-1.41,4V535h-5V520.26a5.38,5.38,0,0,0-1.36-4,4.8,4.8,0,0,0-3.54-1.39A4.72,4.72,0,0,0,12,516.29a5.22,5.22,0,0,0-1.43,4V535h-5Z"/><path class="cls-9" d="M60,532.84h-.1a4.16,4.16,0,0,1-2.15,1.87,10.25,10.25,0,0,1-4,.62,9.06,9.06,0,0,1-6.41-2.2A6.88,6.88,0,0,1,45,527.75a7,7,0,0,1,2.06-5.19,8.19,8.19,0,0,1,6-2.15H60v-2.6q0-3.27-5.09-3.18A9.13,9.13,0,0,0,52,515a3.6,3.6,0,0,0-1.77,1.53l-3.92-3q2.84-3.73,8.39-3.63a13.3,13.3,0,0,1,7.48,1.77q2.8,1.86,2.85,6.4v17H60Zm0-8.32h-6q-4.35.1-4.3,3a2.65,2.65,0,0,0,1.12,2.15,5.24,5.24,0,0,0,3.56,1,8.72,8.72,0,0,0,4.42-.74q1.17-.79,1.17-3.58Z"/><path class="cls-9" d="M71.48,510.22h5v2.63h.1a8.34,8.34,0,0,1,11.67-1l-3.63,4.33a5.25,5.25,0,0,0-3.28-1.25,4.7,4.7,0,0,0-3.28,1.25,4.86,4.86,0,0,0-1.58,3.95V535h-5Z"/><path class="cls-9" d="M90.53,500.18h5v21.68h.1l9.54-11.65h6l-8.56,9.68L112.31,535H106l-6.6-11.6-3.92,4.45V535h-5Z"/><path class="cls-9" d="M119.13,524.52a5.8,5.8,0,0,0,1.72,4.54,5.74,5.74,0,0,0,4.21,1.58,7.45,7.45,0,0,0,5.43-2.41l3.61,3.08a11.7,11.7,0,0,1-8.94,4,12.82,12.82,0,0,1-3.83-.57,9.11,9.11,0,0,1-1.82-.84,8.84,8.84,0,0,1-1.75-1.12,9.84,9.84,0,0,1-2.56-3.87,15.28,15.28,0,0,1-1.08-6.22,17.27,17.27,0,0,1,.93-6.12,10.66,10.66,0,0,1,2.39-3.92,9,9,0,0,1,3.32-2.1,10.74,10.74,0,0,1,3.59-.64,10.33,10.33,0,0,1,7.2,2.8,10.17,10.17,0,0,1,3,7.7v4.11Zm10.47-4.11A6.31,6.31,0,0,0,128,516a5.51,5.51,0,0,0-7.36,0,6.62,6.62,0,0,0-1.55,4.37Z"/><path class="cls-9" d="M140.12,502.67h5v7.55h3.63V514h-3.63v14.46c0,1.26.56,1.87,1.77,1.84h1.87V535h-2.6a5.92,5.92,0,0,1-4.3-1.63,5.74,5.74,0,0,1-1.72-4.49V514h-2.49v-3.8h2.49Z"/><path class="cls-9" d="M153.57,510.22h5V535h-5Zm0-10h5v5h-5Z"/><path class="cls-9" d="M165.17,510.22h5v2.63h.1a8,8,0,0,1,6.45-2.94,8.54,8.54,0,0,1,5.65,2.17,8.43,8.43,0,0,1,2.65,6.45V535h-5V520.26a5.33,5.33,0,0,0-1.39-4,4.72,4.72,0,0,0-3.51-1.39,4.79,4.79,0,0,0-3.54,1.39,5.27,5.27,0,0,0-1.41,4V535h-5Z"/><path class="cls-9" d="M205.43,532.43a8.4,8.4,0,0,1-6.4,2.89,7.91,7.91,0,0,1-4-1,8.9,8.9,0,0,1-2.55-2,7.47,7.47,0,0,1-1.41-3,31.42,31.42,0,0,1-.45-6.65,32.44,32.44,0,0,1,.45-6.76,7.25,7.25,0,0,1,1.41-2.94,8,8,0,0,1,2.55-2.1,8.57,8.57,0,0,1,4-.93,8.42,8.42,0,0,1,6.4,2.94v-2.63h5v24.22q-.1,5.6-3.23,8.22a11.23,11.23,0,0,1-7.55,2.7,11.35,11.35,0,0,1-8.6-4.16l3.87-3.08a9.25,9.25,0,0,0,2.2,1.51,6,6,0,0,0,6.74-.67,5.32,5.32,0,0,0,1.58-4Zm-9.85-9.78a26.23,26.23,0,0,0,.19,3.92,3.65,3.65,0,0,0,.79,1.87,4.55,4.55,0,0,0,1.53,1.22,4.76,4.76,0,0,0,4.87,0,4.72,4.72,0,0,0,1.48-1.22,4,4,0,0,0,.84-1.87,35.05,35.05,0,0,0,.14-3.92,37.12,37.12,0,0,0-.14-4,3.68,3.68,0,0,0-.84-1.81,5.76,5.76,0,0,0-1.48-1.31,5.24,5.24,0,0,0-4.87,0,5.47,5.47,0,0,0-1.53,1.31,3.35,3.35,0,0,0-.79,1.81A27.78,27.78,0,0,0,195.58,522.65Z"/><path class="cls-9" d="M243.46,532.43a8.43,8.43,0,0,1-6.43,2.89,8.18,8.18,0,0,1-3.85-.93,8.31,8.31,0,0,1-2.8-2.29,6.31,6.31,0,0,1-1.36-3.18,49.84,49.84,0,0,1,0-12.67,6.23,6.23,0,0,1,1.36-3.09q2.1-3.13,6.65-3.25a8,8,0,0,1,3.54.79,14.24,14.24,0,0,1,2.89,2.15V500.18h5V535h-5Zm-4.9-17.53a5,5,0,0,0-2.7.6,3.75,3.75,0,0,0-1.51,1.77,9.14,9.14,0,0,0-.6,2.43,28.4,28.4,0,0,0-.14,2.89,25.51,25.51,0,0,0,.14,2.75,9.25,9.25,0,0,0,.6,2.54,4.08,4.08,0,0,0,1.51,1.77,4.6,4.6,0,0,0,2.7.67,4.83,4.83,0,0,0,2.8-.72,3.51,3.51,0,0,0,1.41-1.82,9,9,0,0,0,.65-2.51c0-.91,0-1.8,0-2.68s0-1.87,0-2.75a9,9,0,0,0-.65-2.44,3.51,3.51,0,0,0-1.41-1.82A5,5,0,0,0,238.57,514.91Z"/><path class="cls-9" d="M254.18,510.22h5V535h-5Zm0-10h5v5h-5Z"/><path class="cls-9" d="M279.73,532.43a8.4,8.4,0,0,1-6.4,2.89,7.88,7.88,0,0,1-4-1,8.87,8.87,0,0,1-2.56-2,7.53,7.53,0,0,1-1.41-3,31.42,31.42,0,0,1-.45-6.65,32.44,32.44,0,0,1,.45-6.76,7.31,7.31,0,0,1,1.41-2.94,8,8,0,0,1,2.56-2.1,8.54,8.54,0,0,1,4-.93,8.41,8.41,0,0,1,6.4,2.94v-2.63h5v24.22q-.1,5.6-3.23,8.22a11.38,11.38,0,0,1-16.16-1.46l3.87-3.08a9.28,9.28,0,0,0,2.2,1.51,6,6,0,0,0,6.74-.67,5.3,5.3,0,0,0,1.58-4Zm-9.85-9.78a26.23,26.23,0,0,0,.19,3.92,3.73,3.73,0,0,0,.79,1.87,4.6,4.6,0,0,0,1.53,1.22,4.77,4.77,0,0,0,4.88,0,4.7,4.7,0,0,0,1.48-1.22,4,4,0,0,0,.84-1.87,35.05,35.05,0,0,0,.14-3.92,37.12,37.12,0,0,0-.14-4,3.68,3.68,0,0,0-.84-1.81,5.73,5.73,0,0,0-1.48-1.31,5.24,5.24,0,0,0-4.88,0,5.53,5.53,0,0,0-1.53,1.31,3.42,3.42,0,0,0-.79,1.81A27.78,27.78,0,0,0,269.88,522.65Z"/><path class="cls-9" d="M291.33,510.22h5V535h-5Zm0-10h5v5h-5Z"/><path class="cls-9" d="M303.21,502.67h5v7.55h3.63V514h-3.63v14.46c0,1.26.56,1.87,1.77,1.84h1.87V535h-2.6a5.92,5.92,0,0,1-4.3-1.63,5.75,5.75,0,0,1-1.72-4.49V514h-2.49v-3.8h2.49Z"/><path class="cls-9" d="M329.55,532.84h-.1a4.13,4.13,0,0,1-2.15,1.87,10.25,10.25,0,0,1-4,.62,9.06,9.06,0,0,1-6.4-2.2,6.88,6.88,0,0,1-2.37-5.38,7,7,0,0,1,2.06-5.19,8.18,8.18,0,0,1,6-2.15h6.91v-2.6q0-3.27-5.09-3.18a9.12,9.12,0,0,0-2.94.38,3.58,3.58,0,0,0-1.77,1.53l-3.92-3q2.85-3.73,8.39-3.63a13.31,13.31,0,0,1,7.48,1.77q2.79,1.86,2.84,6.4v17h-5Zm0-8.32h-6q-4.35.1-4.3,3a2.65,2.65,0,0,0,1.13,2.15,5.24,5.24,0,0,0,3.56,1,8.71,8.71,0,0,0,4.42-.74q1.17-.79,1.17-3.58Z"/><path class="cls-9" d="M341,500.18h5v28.45c0,1.13.62,1.7,1.87,1.7h1.72V535h-2.22a7.13,7.13,0,0,1-4.49-1.36Q341,532.29,341,529Z"/></g></g></svg>